<svg width="40" height="40" viewBox="0 0 40 40" fill="none" xmlns="http://www.w3.org/2000/svg">
<g clip-path="url(#clip0_46_8931)">
<mask id="mask0_46_8931" style="mask-type:luminance" maskUnits="userSpaceOnUse" x="0" y="0" width="40" height="40">
<path d="M0 0H40V40H0V0Z" fill="white"/>
</mask>
<g mask="url(#mask0_46_8931)">
<path d="M22.9601 2.92C22.9601 4.53264 21.6528 5.84 20.0401 5.84C18.4275 5.84 17.1201 4.53264 17.1201 2.92C17.1201 1.30736 18.4275 0 20.0401 0C21.6528 0 22.9601 1.30736 22.9601 2.92Z" fill="url(#paint0_linear_46_8931)"/>
<path fill-rule="evenodd" clip-rule="evenodd" d="M20.04 5.83997H15.04C10.6514 5.83997 6.92832 8.68989 5.62056 12.64H5.44C2.4356 12.64 0 15.0756 0 18.08C0 21.0844 2.4356 23.52 5.44 23.52H5.56912C6.82832 27.5528 10.5923 30.48 15.04 30.48H25.04C29.4877 30.48 33.2518 27.5528 34.5109 23.52H34.56C37.5644 23.52 40 21.0844 40 18.08C40 15.0756 37.5644 12.64 34.56 12.64H34.4594C33.1517 8.68989 29.4286 5.83997 25.04 5.83997H20.04ZM29.7349 17.44C29.7349 19.4909 28.0722 21.1536 26.0211 21.1536C23.9701 21.1536 22.3074 19.4909 22.3074 17.44C22.3074 15.3889 23.9701 13.7262 26.0211 13.7262C28.0722 13.7262 29.7349 15.3889 29.7349 17.44ZM13.9537 21.1536C16.0047 21.1536 17.6674 19.4909 17.6674 17.44C17.6674 15.3889 16.0047 13.7262 13.9537 13.7262C11.9027 13.7262 10.24 15.3889 10.24 17.44C10.24 19.4909 11.9027 21.1536 13.9537 21.1536Z" fill="url(#paint1_linear_46_8931)"/>
<path d="M7.19312 40C9.58976 35.3443 14.443 32.16 20.0399 32.16C25.6369 32.16 30.4901 35.3443 32.8867 40H7.19312Z" fill="url(#paint2_linear_46_8931)"/>
</g>
</g>
<defs>
<linearGradient id="paint0_linear_46_8931" x1="22.9601" y1="2.92" x2="17.1201" y2="2.92" gradientUnits="userSpaceOnUse">
<stop stop-color="#851651"/>
<stop offset="1" stop-color="#DD2590"/>
</linearGradient>
<linearGradient id="paint1_linear_46_8931" x1="40" y1="18.16" x2="0" y2="18.16" gradientUnits="userSpaceOnUse">
<stop stop-color="#851651"/>
<stop offset="1" stop-color="#DD2590"/>
</linearGradient>
<linearGradient id="paint2_linear_46_8931" x1="32.8867" y1="36.08" x2="7.19312" y2="36.08" gradientUnits="userSpaceOnUse">
<stop stop-color="#851651"/>
<stop offset="1" stop-color="#DD2590"/>
</linearGradient>
<clipPath id="clip0_46_8931">
<rect width="40" height="40" fill="white"/>
</clipPath>
</defs>
</svg>
